<svg width="120" height="153" viewBox="0 0 120 153" fill="none" xmlns="http://www.w3.org/2000/svg">
<g clip-path="url(#clip0)">
<path d="M72.2689 150.026H0V149.436H72.376L72.2689 150.026Z" fill="#3F3D56"/>
<path d="M24.9702 141.477L20.7643 141.757L21.3251 97.7844H31.6998L24.9702 141.477Z" fill="#A0616A"/>
<path d="M45.1587 141.477L40.9528 141.757L41.5136 97.7844L48.2234 97.7861L45.1587 141.477Z" fill="#A0616A"/>
<path d="M49.645 136.716C45.2423 138.721 41.1041 138.619 37.1651 136.929L35.0644 86.5811L29.0475 136.488C24.6479 137.575 20.2009 137.571 15.717 136.716C16.7498 129.24 21.1585 83.7256 20.7642 75.3778L50.2058 73.9774L49.645 136.716Z" fill="#2F2E41"/>
<path d="M24.218 153C23.6382 153 23.0645 152.882 22.5321 152.652C21.9998 152.423 21.5201 152.087 21.1224 151.665C20.7247 151.244 20.4174 150.746 20.2195 150.201C20.0216 149.657 19.9372 149.078 19.9714 148.5L20.3772 141.651C22.0111 138.725 23.9943 138.713 26.3057 141.44L28.2624 147.433C28.4706 148.071 28.5247 148.749 28.4201 149.412C28.3156 150.075 28.0554 150.704 27.6609 151.247C27.2663 151.79 26.7487 152.232 26.1503 152.536C25.5518 152.841 24.8897 153 24.218 153Z" fill="#2F2E41"/>
<path d="M44.126 153C43.5462 153 42.9725 152.882 42.4402 152.652C41.9079 152.423 41.4281 152.087 41.0304 151.665C40.6327 151.244 40.3255 150.746 40.1276 150.201C39.9297 149.657 39.8452 149.078 39.8795 148.5L40.2853 141.651C41.9192 138.725 43.9024 138.713 46.2138 141.44L48.1704 147.433C48.3787 148.071 48.4327 148.749 48.3282 149.412C48.2236 150.075 47.9635 150.704 47.5689 151.247C47.1744 151.79 46.6567 152.232 46.0583 152.536C45.4599 152.841 44.7978 153 44.126 153Z" fill="#2F2E41"/>
<path d="M38.4291 19.6415C42.92 19.6415 46.5606 16.005 46.5606 11.5191C46.5606 7.03324 42.92 3.39673 38.4291 3.39673C33.9382 3.39673 30.2976 7.03324 30.2976 11.5191C30.2976 16.005 33.9382 19.6415 38.4291 19.6415Z" fill="#A0616A"/>
<path d="M38.1487 26.9236L24.9701 21.6021C28.124 20.0579 30.2654 17.1881 31.98 13.7598H37.8683C37.5875 18.9911 37.3613 24.0992 38.1487 26.9236Z" fill="#A0616A"/>
<path d="M51.047 75.938L19.6426 76.7782C20.025 61.7156 19.3541 46.2168 17.7797 30.3437C17.6032 28.5543 18.0234 26.7568 18.975 25.2306C19.9267 23.7044 21.3565 22.535 23.0421 21.9042L26.0917 20.7618L38.4291 24.1228L44.2518 28.5819C45.032 29.1813 45.6513 29.9642 46.0547 30.861C46.4581 31.7577 46.6329 32.7402 46.5635 33.7208C45.682 46.5798 47.6502 60.8941 51.047 75.938Z" fill="#2280FA"/>
<path d="M54.5485 86.5465C53.7124 86.5949 52.8896 86.3211 52.2498 85.7815C51.6099 85.2418 51.2016 84.4775 51.1092 83.6461L50.415 77.4025L54.1249 76.3701L57.1882 81.6472C57.4683 82.1298 57.62 82.676 57.6289 83.2338C57.6378 83.7916 57.5035 84.3423 57.2388 84.8336C56.9741 85.3248 56.5879 85.7402 56.117 86.04C55.646 86.3399 55.106 86.5142 54.5485 86.5465Z" fill="#A0616A"/>
<path d="M57.7766 77.8985L50.4862 78.1786L44.8783 55.7721L43.4763 28.0439C44.7595 28.2042 45.9527 28.7866 46.8678 29.6993C47.7828 30.612 48.3676 31.8031 48.5298 33.0846L51.047 52.9712L57.7766 77.8985Z" fill="#2280FA"/>
<path opacity="0.2" d="M23.1476 36.3065L22.8672 54.7919L35.2046 75.518L24.2692 54.2318L23.1476 36.3065Z" fill="black"/>
<path opacity="0.2" d="M19.425 64.2264L26.7375 76.7783L24.1461 76.6383L19.425 64.2264Z" fill="black"/>
<path d="M36.3628 61.7838C36.0217 61.7842 35.6946 61.9198 35.4534 62.1607C35.2121 62.4017 35.0764 62.7284 35.076 63.0691V142.757C35.0765 143.098 35.2121 143.424 35.4534 143.665C35.6946 143.906 36.0217 144.042 36.3628 144.042H118.713C119.054 144.042 119.381 143.906 119.623 143.665C119.864 143.424 120 143.098 120 142.757V63.0691C120 62.7283 119.864 62.4017 119.623 62.1607C119.381 61.9198 119.054 61.7842 118.713 61.7838L36.3628 61.7838Z" fill="#E6E6E6"/>
<path d="M38.3007 140.821H116.775V65.0048H38.3007V140.821Z" fill="white"/>
<path d="M45.2901 77.0834C44.7666 77.0834 44.3406 77.833 44.3406 78.7542C44.3406 79.6755 44.7666 80.4251 45.2901 80.4251H81.0813C81.6049 80.4251 82.0309 79.6755 82.0309 78.7542C82.0309 77.833 81.6049 77.0834 81.0813 77.0834H45.2901Z" fill="#E6E6E6"/>
<path d="M45.2901 87.3656C44.7666 87.3656 44.3406 88.1152 44.3406 89.0365C44.3406 89.9578 44.7666 90.7073 45.2901 90.7073H81.0813C81.6049 90.7073 82.0309 89.9578 82.0309 89.0365C82.0309 88.1152 81.6049 87.3656 81.0813 87.3656H45.2901Z" fill="#E6E6E6"/>
<path d="M45.2901 97.5294C44.7666 97.5294 44.3406 98.279 44.3406 99.2003C44.3406 100.122 44.7666 100.871 45.2901 100.871H81.0813C81.6049 100.871 82.0309 100.122 82.0309 99.2003C82.0309 98.279 81.6049 97.5294 81.0813 97.5294H45.2901Z" fill="#E6E6E6"/>
<path d="M45.2901 107.812C44.7666 107.812 44.3406 108.561 44.3406 109.483C44.3406 110.404 44.7666 111.153 45.2901 111.153H81.0813C81.6049 111.153 82.0309 110.404 82.0309 109.483C82.0309 108.561 81.6049 107.812 81.0813 107.812H45.2901Z" fill="#E6E6E6"/>
<path d="M99.2141 77.1934C98.7705 77.1934 98.345 77.3694 98.0313 77.6827C97.7176 77.9961 97.5414 78.4211 97.5414 78.8642C97.5414 79.3074 97.7176 79.7324 98.0313 80.0457C98.345 80.3591 98.7705 80.5351 99.2141 80.5351H105.905C106.349 80.5351 106.774 80.3591 107.088 80.0457C107.402 79.7324 107.578 79.3074 107.578 78.8642C107.578 78.4211 107.402 77.9961 107.088 77.6827C106.774 77.3694 106.349 77.1934 105.905 77.1934H99.2141Z" fill="#E6E6E6"/>
<path d="M99.2141 87.2762C98.7705 87.2762 98.345 87.4523 98.0313 87.7656C97.7176 88.079 97.5414 88.504 97.5414 88.9471C97.5414 89.3903 97.7176 89.8152 98.0313 90.1286C98.345 90.4419 98.7705 90.618 99.2141 90.618H105.905C106.349 90.618 106.774 90.4419 107.088 90.1286C107.402 89.8152 107.578 89.3903 107.578 88.9471C107.578 88.504 107.402 88.079 107.088 87.7656C106.774 87.4523 106.349 87.2762 105.905 87.2762H99.2141Z" fill="#E6E6E6"/>
<path d="M99.2141 97.3593C98.7705 97.3593 98.345 97.5353 98.0313 97.8486C97.7176 98.162 97.5414 98.587 97.5414 99.0301C97.5414 99.4733 97.7176 99.8983 98.0313 100.212C98.345 100.525 98.7705 100.701 99.2141 100.701H105.905C106.349 100.701 106.774 100.525 107.088 100.212C107.402 99.8983 107.578 99.4733 107.578 99.0301C107.578 98.587 107.402 98.162 107.088 97.8486C106.774 97.5353 106.349 97.3593 105.905 97.3593H99.2141Z" fill="#E6E6E6"/>
<path d="M99.2141 107.442C98.7705 107.442 98.345 107.618 98.0313 107.932C97.7176 108.245 97.5414 108.67 97.5414 109.113C97.5414 109.556 97.7176 109.981 98.0313 110.295C98.345 110.608 98.7705 110.784 99.2141 110.784H105.905C106.349 110.784 106.774 110.608 107.088 110.295C107.402 109.981 107.578 109.556 107.578 109.113C107.578 108.67 107.402 108.245 107.088 107.932C106.774 107.618 106.349 107.442 105.905 107.442H99.2141Z" fill="#E6E6E6"/>
<path d="M97.1751 124.349C96.6098 124.349 96.0677 124.573 95.668 124.973C95.2683 125.372 95.0437 125.914 95.0437 126.478C95.0437 127.043 95.2683 127.584 95.668 127.984C96.0677 128.383 96.6098 128.607 97.1751 128.607H105.701C106.266 128.607 106.808 128.383 107.208 127.984C107.608 127.584 107.832 127.043 107.832 126.478C107.832 125.914 107.608 125.372 107.208 124.973C106.808 124.573 106.266 124.349 105.701 124.349H97.1751Z" fill="#2280FA"/>
<path d="M107.547 118.651H44.4576V119.211H107.547V118.651Z" fill="#E6E6E6"/>
<path d="M37.124 85.1669C36.3707 85.5324 35.5057 85.5952 34.7074 85.3425C33.9091 85.0898 33.2383 84.5408 32.8332 83.8087L29.7913 78.3104L32.8195 75.9337L37.6771 79.6306C38.1213 79.9687 38.4715 80.4148 38.6941 80.9264C38.9168 81.438 39.0046 81.998 38.9492 82.5531C38.8937 83.1082 38.6969 83.6399 38.3773 84.0974C38.0578 84.555 37.6263 84.9232 37.124 85.1669Z" fill="#A0616A"/>
<path d="M35.0644 76.2181L28.8956 79.5791L14.8758 55.4921L13.2602 34.3105C13.0789 31.9339 13.6709 29.5623 14.9481 27.5489C16.2252 25.5355 18.1192 23.988 20.3481 23.1367L22.1661 22.4424L23.2877 54.3717L35.0644 76.2181Z" fill="#2280FA"/>
<path d="M45.329 2.60439L45.4194 3.95877L44.7212 2.09912C42.9654 0.824243 40.8667 0.105418 38.6972 0.0357738L38.6972 0.0357567C37.4083 -0.0925 36.1075 0.0942942 34.9069 0.580031C33.7064 1.06577 32.6422 1.83587 31.806 2.82395C30.9697 3.81203 30.3867 4.98844 30.107 6.25174C29.8273 7.51504 29.8594 8.82734 30.2006 10.0755L30.2976 11.2391L32.5408 8.15816H32.5408C33.551 7.2432 34.7815 6.60554 36.1121 6.30744C37.4427 6.00934 38.8279 6.06098 40.1326 6.45733C41.1127 6.75608 42.0552 7.16632 42.9415 7.67996C44.2942 8.48911 45.5147 9.50049 46.5607 10.6789L46.7555 9.35534C48.0652 6.89453 47.2856 4.39642 45.329 2.60439Z" fill="#2F2E41"/>
</g>
<defs>
<clipPath id="clip0">
<rect width="120" height="153" fill="white"/>
</clipPath>
</defs>
</svg>
