<svg width="132" height="132" viewBox="0 0 132 132" fill="none" xmlns="http://www.w3.org/2000/svg">
<path d="M131.418 90.2598L122.313 81.1551C121.536 80.3785 120.277 80.3785 119.5 81.1551C118.724 81.9316 118.724 83.1908 119.5 83.9671L120.769 85.235L90.2017 115.802L79.2975 104.898L109.865 74.331L112.981 77.4471C113.757 78.2237 115.016 78.2237 115.793 77.4471C116.57 76.6705 116.57 75.4114 115.793 74.6351L111.282 70.1238C107.708 66.4588 105.359 62.2832 102.051 58.365C105.83 53.2887 101.83 45.8564 95.5341 46.1653C95.7423 41.7441 91.9643 37.9461 87.5289 38.156C87.7367 33.737 83.9448 29.9323 79.5175 30.1489C79.8609 22.8542 70.7434 19.5732 65.9993 24.8417L65.531 24.3735C62.548 21.3904 57.6939 21.3904 54.7108 24.3735C53.1256 25.9587 52.3827 28.0724 52.4824 30.1529C48.0543 29.9408 44.2613 33.7219 44.471 38.1608C42.707 38.077 40.9208 38.6012 39.4517 39.7286C36.7484 38.7751 33.7926 39.1209 31.1749 40.7332C27.9477 42.7209 25.9279 46.1785 25.8786 49.7828L23.626 67.2166L0.582438 90.2598C-0.194146 91.0364 -0.194146 92.2956 0.582438 93.0719L33.9613 126.451C34.3494 126.839 34.8585 127.033 35.3673 127.033C35.8761 127.033 36.3851 126.839 36.7733 126.451L56.9202 106.304C57.6968 105.527 57.6968 104.268 56.9202 103.492L53.5355 100.107C57.3354 96.3076 61.1468 94.3827 65.9995 92.1903C70.8149 94.366 74.6973 96.3413 78.4636 100.107L75.0789 103.492C74.7061 103.865 74.4966 104.371 74.4966 104.898C74.4966 105.425 74.7061 105.931 75.0789 106.304L95.2258 126.451C95.6142 126.839 96.1233 127.033 96.6321 127.033C97.1409 127.033 97.6499 126.839 98.0384 126.451L131.417 93.0721C131.79 92.6994 132 92.1935 132 91.6661C132 91.1388 131.79 90.6326 131.418 90.2598ZM95.9003 50.1333C98.4748 50.1365 100.307 52.9374 99.2606 55.296C97.6627 53.6655 96.0366 52.0619 94.4222 50.4475C94.9151 50.3425 95.4077 50.238 95.9003 50.1333ZM87.8913 42.1241C90.4894 42.1273 92.295 44.9189 91.2522 47.2852C89.5426 45.6146 87.6105 44.107 85.4497 43.0627C86.1475 42.4481 86.9612 42.1352 87.8913 42.1241ZM33.9674 56.8736L33.4991 56.4054C32.0666 54.9728 32.0666 52.642 33.4991 51.2095C34.2155 50.4934 35.1562 50.1352 36.0969 50.1352C37.0376 50.1352 37.9786 50.4934 38.6947 51.2095L39.1627 51.6775L36.5649 54.2753L33.9674 56.8736ZM57.5231 27.1855C58.2395 26.4694 59.1802 26.1112 60.1209 26.1112C61.0616 26.1112 62.0026 26.4694 62.7187 27.1855L63.187 27.6537L57.9911 32.8496L57.5229 32.3814C56.0906 30.9488 56.0906 28.618 57.5231 27.1855ZM48.439 37.7915C48.439 36.8102 48.8211 35.8875 49.5152 35.1937C50.2316 34.4775 51.1723 34.1193 52.113 34.1193C53.0537 34.1193 53.9947 34.4775 54.7108 35.1937L55.1791 35.6619L52.5813 38.2597L49.9832 40.8575L49.515 40.3893C48.8211 39.6954 48.439 38.7727 48.439 37.7915ZM44.1048 42.1273C45.0456 42.1273 45.9868 42.4854 46.7026 43.2016L47.1709 43.6698L41.975 48.8657L41.5068 48.3975C40.0742 46.9649 40.0742 44.6341 41.5068 43.2016C42.2234 42.4852 43.1639 42.1273 44.1048 42.1273ZM33.2605 44.1192C34.0204 43.6515 35.34 43.0513 36.9082 43.2072C36.5665 44.1606 36.4183 45.1684 36.4663 46.169C33.9117 46.0465 31.3831 47.2627 29.8872 49.339C30.0929 47.2865 31.369 45.2842 33.2605 44.1192ZM35.3673 122.233L4.80076 91.6659L8.41934 88.0473L38.9859 118.614L35.3673 122.233ZM74.862 91.8279C73.4594 90.9561 71.9712 90.2206 70.4263 89.6357C72.4066 88.2101 74.0793 86.4514 75.7974 84.7336C76.574 83.957 76.574 82.6979 75.7974 81.9216C75.0205 81.145 73.7617 81.145 72.9851 81.9216C70.5731 84.3335 68.2169 86.6678 65.1151 88.2095C59.6805 90.9269 55.0974 92.9213 50.724 97.2947L33.8162 80.387C33.0396 79.6104 31.7805 79.6104 31.0042 80.387C30.2276 81.1635 30.2276 82.4227 31.0042 83.199L52.7027 104.897L41.7987 115.802L11.2314 85.2352L22.1354 74.3312L24.1043 76.3002C24.8809 77.0767 26.14 77.0767 26.9163 76.3002C27.6929 75.5236 27.6929 74.2644 26.9163 73.4881L24.9474 71.5192L26.9171 69.5495C27.2278 69.2388 27.4267 68.8339 27.4832 68.3983L28.9995 56.6634C29.7238 58.4711 31.2163 59.7474 32.5574 61.0882C33.335 61.8661 34.6122 61.8537 35.3734 61.0922L69.2809 27.1844C72.5943 23.871 77.8018 29.0574 74.4775 32.3814C74.0894 32.7695 73.8953 33.2786 73.8953 33.7874C73.8953 34.2962 74.0894 34.8052 74.4775 35.1934C75.2544 35.97 76.5133 35.97 77.2898 35.1934C80.6417 31.8416 85.8363 37.0377 82.4849 40.3885C82.0968 40.7766 81.9027 41.2857 81.9027 41.7945C81.9027 41.335 66.1059 41.5495 64.8282 41.5495C56.1712 41.5495 54.7339 54.3705 63.2888 56.04L73.1487 58.9602C74.6886 59.4157 76.1036 60.2578 77.2411 61.3955L85.3762 69.5304L79.6358 75.2709C78.8589 76.0475 78.8589 77.3063 79.6355 78.0829C80.4121 78.8595 81.6712 78.8595 82.4475 78.0829L89.5943 70.9364C89.9673 70.5637 90.1768 70.0578 90.1768 69.5304C90.1768 69.0031 89.9673 68.4972 89.5946 68.1244L80.0536 58.5835C78.4485 56.9783 76.451 55.7897 74.2779 55.147L64.3207 52.1979C60.6523 51.1122 60.3081 45.5268 64.8284 45.5268H78.957C82.7949 45.5268 86.0775 47.7264 88.7002 50.3494C88.7002 50.3494 97.3249 59.0093 97.9082 59.662C101.307 63.4421 103.482 67.9473 107.053 71.5179L81.2762 97.2944C79.2731 95.2919 77.2867 93.3338 74.862 91.8279ZM96.6326 122.233L93.0143 118.614L123.581 88.0475L127.199 91.6661L96.6326 122.233Z" fill="#2280FA"/>
<path d="M65.9998 13.0092C67.0982 13.0092 67.9883 12.1189 67.9883 11.0207V6.95532C67.9883 5.85712 67.0982 4.9668 65.9998 4.9668C64.9016 4.9668 64.0112 5.85712 64.0112 6.95532V11.0207C64.0112 12.1189 64.9016 13.0092 65.9998 13.0092Z" fill="#2280FA"/>
<path d="M54.7864 13.7444C55.1131 14.4913 55.843 14.9367 56.6092 14.9367C56.8752 14.9367 57.1456 14.8829 57.4049 14.7697C58.4111 14.3296 58.87 13.1571 58.4299 12.1509L56.8009 8.4263C56.3608 7.42011 55.1884 6.96089 54.1822 7.40128C53.176 7.84141 52.717 9.01384 53.1572 10.02L54.7864 13.7444Z" fill="#2280FA"/>
<path d="M47.4254 19.9361C47.808 20.2898 48.2921 20.4646 48.7749 20.4646C49.31 20.4646 49.8434 20.2498 50.2356 19.8261C50.9811 19.0198 50.9318 17.7618 50.1255 17.0159L47.1406 14.2559C46.3341 13.51 45.0763 13.5596 44.3305 14.3659C43.5849 15.1722 43.6342 16.4302 44.4405 17.1761L47.4254 19.9361Z" fill="#2280FA"/>
<path d="M74.5946 14.7694C74.8539 14.8829 75.1241 14.9364 75.3903 14.9364C76.1566 14.9364 76.8867 14.491 77.2134 13.7441L78.8424 10.0195C79.2822 9.0133 78.8233 7.84086 77.8171 7.401C76.8117 6.9614 75.6385 7.41983 75.1983 8.42628L73.5693 12.1509C73.1295 13.1568 73.5884 14.3293 74.5946 14.7694Z" fill="#2280FA"/>
<path d="M83.2246 20.4646C83.7074 20.4646 84.1915 20.2898 84.5741 19.9361L87.5593 17.1761C88.3655 16.4305 88.4151 15.1724 87.6693 14.3659C86.9235 13.5596 85.6654 13.51 84.8591 14.2559L81.8739 17.0159C81.0677 17.7615 81.0181 19.0196 81.7639 19.8261C82.1561 20.2498 82.6895 20.4646 83.2246 20.4646Z" fill="#2280FA"/>
<path d="M42.3292 107.284C43.5334 106.999 44.2788 105.792 43.9942 104.588C43.7095 103.384 42.5026 102.638 41.2983 102.923C40.0941 103.208 39.3487 104.415 39.6333 105.619C39.918 106.823 41.125 107.569 42.3292 107.284Z" fill="#2280FA"/>
</svg>
