<svg width="105" height="105" viewBox="0 0 105 105" fill="none" xmlns="http://www.w3.org/2000/svg">
<path d="M98.892 6.5625L94.1866 3.73898C91.898 2.36578 89.2779 1.64062 86.6102 1.64062H72.1875C70.3779 1.64062 68.9062 3.11227 68.9062 4.92188C68.9062 6.12281 69.2541 7.23352 69.8184 8.20312H62.3438C59.6302 8.20312 57.4219 10.4114 57.4219 13.125C57.4219 13.7025 57.54 14.2505 57.7237 14.7656H52.5C49.7864 14.7656 47.5781 16.9739 47.5781 19.6875V25.3001C40.8483 27.3345 36.0938 33.6312 36.0938 40.7531C36.0938 47.9243 40.909 54.3063 47.8013 56.2751L54.4934 58.1864C57.184 58.9559 59.0625 61.448 59.0625 64.2469C59.0625 67.7217 56.2357 70.5469 52.7625 70.5469H52.2375C48.7643 70.5469 45.9375 67.7201 45.9375 64.2469V63.9844C45.9375 61.2708 43.7292 59.0625 41.0156 59.0625C38.302 59.0625 36.0938 61.2708 36.0938 63.9844V64.2469C36.0938 67.7857 37.2701 71.1195 39.2766 73.8281H35.1816C35.7459 72.8585 36.0938 71.7478 36.0938 70.5469C36.0938 68.7373 34.6221 67.2656 32.8125 67.2656H18.3898C15.7221 67.2656 13.102 67.9908 10.8117 69.364L6.10805 72.1875H1.64062V98.4375H6.10805L10.8134 101.261C13.102 102.634 15.7221 103.359 18.3898 103.359H39.375C42.0886 103.359 44.2969 101.151 44.2969 98.4375C44.2969 97.7895 44.164 97.1742 43.9359 96.6066C46.0277 96.0389 47.5781 94.144 47.5781 91.875C47.5781 91.2975 47.46 90.7495 47.2762 90.2344H52.5C55.2136 90.2344 57.4219 88.0261 57.4219 85.3125V79.6999C64.1517 77.6655 68.9062 71.3688 68.9062 64.2469C68.9062 57.0757 64.091 50.6937 57.1987 48.7249L50.5066 46.8136C47.816 46.0441 45.9375 43.552 45.9375 40.7531C45.9375 37.2783 48.7643 34.4531 52.2375 34.4531H52.7609C56.2357 34.4531 59.0609 37.2799 59.0609 40.7531V41.0156C59.0609 43.7292 61.2691 45.9375 63.9827 45.9375C66.6963 45.9375 68.9046 43.7292 68.9046 41.0156V40.7531C68.9046 39.7245 68.7947 38.7171 68.6044 37.7344H86.607C89.2746 37.7344 91.8947 37.0092 94.185 35.636L98.892 32.8125H103.359V6.5625H98.892ZM44.2969 91.875C44.2969 92.779 43.5602 93.5156 42.6562 93.5156H39.375H22.9688V96.7969H39.375C40.279 96.7969 41.0156 97.5335 41.0156 98.4375C41.0156 99.3415 40.279 100.078 39.375 100.078H18.3898C16.316 100.078 14.28 99.5137 12.5016 98.4473L7.01695 95.1562H4.92188V75.4688H7.01695L12.5016 72.1777C14.28 71.1113 16.316 70.5469 18.3898 70.5469H32.8125C32.8125 72.3565 31.3409 73.8281 29.5312 73.8281H22.9688H22.2895L19.7695 76.3481C18.2208 77.8969 16.1602 78.75 13.9699 78.75H11.4844V82.0312H13.9699C17.0379 82.0312 19.9205 80.8369 22.091 78.668L23.6496 77.1094H29.5312H42.5316C44.0278 78.2447 45.7242 79.1388 47.5781 79.6999V80.3906H22.9688V83.6719H47.5781V85.3125C47.5781 85.89 47.6963 86.438 47.88 86.9531H42.6562H22.9688V90.2344H42.6562C43.5602 90.2344 44.2969 90.971 44.2969 91.875ZM65.625 41.0156C65.625 41.9196 64.8884 42.6562 63.9844 42.6562C63.0804 42.6562 62.3438 41.9196 62.3438 41.0156V40.7531C62.3438 35.4703 58.0453 31.1719 52.7625 31.1719H52.2375C46.9547 31.1719 42.6562 35.4703 42.6562 40.7531C42.6562 45.0089 45.5142 48.7987 49.6043 49.9669L56.2964 51.8782C61.7892 53.4483 65.625 58.5326 65.625 64.2469C65.625 70.2794 61.3413 75.5688 55.44 76.8255L54.1406 77.1012V85.3125C54.1406 86.2165 53.404 86.9531 52.5 86.9531C51.596 86.9531 50.8594 86.2165 50.8594 85.3125V77.1012L49.56 76.8255C43.6587 75.5688 39.375 70.2794 39.375 64.2469V63.9844C39.375 63.0804 40.1116 62.3438 41.0156 62.3438C41.9196 62.3438 42.6562 63.0804 42.6562 63.9844V64.2469C42.6562 69.5297 46.9547 73.8281 52.2375 73.8281H52.7609C58.0437 73.8281 62.3421 69.5297 62.3421 64.2469C62.3421 59.9911 59.4841 56.2012 55.3941 55.0331L48.702 53.1218C43.2108 51.5517 39.375 46.4674 39.375 40.7531C39.375 34.7205 43.6587 29.4312 49.56 28.1745L50.8594 27.8988V19.6875C50.8594 18.7835 51.596 18.0469 52.5 18.0469C53.404 18.0469 54.1406 18.7835 54.1406 19.6875V27.8988L55.44 28.1745C61.3413 29.4312 65.625 34.7205 65.625 40.7531V41.0156ZM100.078 29.5312H97.983L92.4984 32.8223C90.72 33.8888 88.684 34.4531 86.6102 34.4531H67.6102C67.1098 33.2866 66.4748 32.1858 65.7251 31.1719H82.0312V27.8906H62.4684C60.9722 26.7553 59.2758 25.8612 57.4219 25.3001V24.6094H82.0312V21.3281H57.4219V19.6875C57.4219 19.11 57.3038 18.562 57.12 18.0469H62.3438H82.0312V14.7656H62.3438C61.4398 14.7656 60.7031 14.029 60.7031 13.125C60.7031 12.221 61.4398 11.4844 62.3438 11.4844H75.4688H81.352L82.9106 13.043C85.0795 15.2119 87.9638 16.4062 91.0317 16.4062H93.5156V13.125H91.0301C88.8398 13.125 86.7792 12.2719 85.2288 10.7231L82.7105 8.20312H82.0312H75.4688C73.6591 8.20312 72.1875 6.73148 72.1875 4.92188H86.6102C88.684 4.92188 90.72 5.48625 92.4984 6.55266L97.983 9.84375H100.078V29.5312Z" fill="#F2994A"/>
<path d="M72.1875 62.3438H88.5938V65.625H72.1875V62.3438Z" fill="#F2994A"/>
<path d="M16.4062 39.375H32.8125V42.6562H16.4062V39.375Z" fill="#F2994A"/>
<path d="M17.913 50.1791L33.0723 43.8955L34.3291 46.9274L19.1697 53.211L17.913 50.1791Z" fill="#F2994A"/>
<path d="M17.9119 31.862L19.1686 28.8301L34.328 35.1137L33.0712 38.1456L17.9119 31.862Z" fill="#F2994A"/>
<path d="M70.7087 58.071L85.8681 51.7874L87.1248 54.8193L71.9655 61.1029L70.7087 58.071Z" fill="#F2994A"/>
<path d="M70.7164 69.9027L71.9731 66.8708L87.1325 73.1544L85.8758 76.1863L70.7164 69.9027Z" fill="#F2994A"/>
</svg>
