<svg width="113" height="113" viewBox="0 0 113 113" fill="none" xmlns="http://www.w3.org/2000/svg">
<g clip-path="url(#clip0)">
<path d="M52.1421 76.6427C53.005 75.7797 53.005 74.383 52.1421 73.5201C51.2783 72.6597 49.8789 72.6597 49.0142 73.5201C48.1522 74.383 48.1522 75.7797 49.0142 76.6427C49.8789 77.5031 51.2783 77.5031 52.1421 76.6427Z" fill="#219653"/>
<path d="M41.6727 24.2705C41.6727 37.6532 52.5818 48.5418 65.9907 48.5418C79.3996 48.5418 90.3086 37.6532 90.3086 24.2705C90.3086 10.8877 79.3996 0 65.9907 0C52.5818 0 41.6727 10.8877 41.6727 24.2705ZM85.8876 24.2705C85.8876 35.2203 76.9619 44.1286 65.9907 44.1286C55.0194 44.1286 46.0937 35.2203 46.0937 24.2705C46.0937 13.3215 55.0194 4.4132 65.9907 4.4132C76.9619 4.4132 85.8876 13.3215 85.8876 24.2705Z" fill="#219653"/>
<path d="M25.5747 112.347C26.4316 113.21 27.8267 113.219 28.6948 112.366L39.4129 101.827C41.2338 100.01 41.7875 97.3189 40.9868 94.98L43.2923 92.7609C44.5336 91.5643 46.1679 90.9047 47.8955 90.9047H77.2849C82.4988 90.9047 87.4269 88.9063 91.1628 85.2777C91.3166 85.1285 89.9958 86.6812 111.213 61.3728C114.36 57.657 113.889 52.0774 110.162 48.9332C106.459 45.8183 100.912 46.2658 97.7563 49.9177L84.7111 63.2996C83.0638 61.2762 80.5518 60.0149 77.8377 60.0149H53.1855C49.6776 58.5502 45.9554 57.8087 42.1149 57.8087C31.4693 57.8087 22.1739 62.7159 17.1854 71.9165C15.0838 71.5191 12.8672 72.1536 11.2726 73.7451L0.755768 84.2724C-0.102858 85.132 -0.104585 86.5226 0.752313 87.3847L25.5747 112.347ZM42.1141 62.2211C45.5002 62.2211 48.774 62.9013 51.8466 64.2428C52.1265 64.3652 52.4279 64.4281 52.7329 64.4281H77.8377C80.2348 64.4281 82.2596 66.3791 82.2596 68.8405C82.2596 71.2742 80.2763 73.2537 77.8377 73.2537H59.8005C58.58 73.2537 57.5901 74.2416 57.5901 75.4598C57.5901 76.6789 58.58 77.666 59.8005 77.666H77.8377C82.7139 77.666 86.6805 73.7071 86.6805 68.8405C86.6805 68.4525 86.6529 68.068 86.6028 67.6869C99.2222 54.7404 101.002 52.9214 101.078 52.8308C102.653 50.9747 105.45 50.7393 107.311 52.305C109.173 53.8766 109.409 56.6664 107.829 58.5329L88.0004 82.1913C85.105 84.9656 81.3033 86.4924 77.2849 86.4924H47.8955C45.0156 86.4924 42.2894 87.5916 40.2215 89.5857L38.3427 91.3953L21.0233 74.1106C25.0711 66.5317 32.6666 62.2211 42.1141 62.2211ZM14.4014 76.8634C15.1304 76.1357 16.2499 76.0047 17.1388 76.553C17.5214 76.7858 16.4227 75.7874 36.2868 95.5852C37.1705 96.4672 37.123 97.8724 36.2989 98.6949L27.1615 107.679L5.43934 85.8337L14.4014 76.8634Z" fill="#219653"/>
<path d="M63.3379 11.0326V13.6181C60.7646 14.5285 58.9161 16.9812 58.9161 19.8581C58.9161 23.5075 61.8911 26.4775 65.5484 26.4775C66.7673 26.4775 67.7589 27.4672 67.7589 28.6837C67.7589 29.9001 66.7673 30.8898 65.5484 30.8898C64.6043 30.8898 63.5841 30.2976 62.678 29.2208C61.8919 28.288 60.4977 28.1681 59.5631 28.9518C58.6284 29.7363 58.5075 31.1278 59.2936 32.0606C60.4753 33.4633 61.8651 34.4409 63.3379 34.9341V37.5092C63.3379 38.7283 64.3279 39.7154 65.5484 39.7154C66.769 39.7154 67.7589 38.7283 67.7589 37.5092V34.9237C70.3322 34.0125 72.1807 31.5597 72.1807 28.6837C72.1807 25.0335 69.2058 22.0643 65.5484 22.0643C64.3296 22.0643 63.3379 21.0746 63.3379 19.8581C63.3379 18.6417 64.3296 17.6511 65.5484 17.6511C66.3319 17.6511 67.1586 18.0503 67.9394 18.8046C68.8171 19.6521 70.2164 19.6288 71.0656 18.7538C71.9147 17.8778 71.8914 16.4812 71.0146 15.6337C69.8925 14.5501 68.7696 13.9371 67.7589 13.6026V11.0326C67.7589 9.81355 66.769 8.82556 65.5484 8.82556C64.3279 8.82556 63.3379 9.81355 63.3379 11.0326Z" fill="#219653"/>
</g>
<defs>
<clipPath id="clip0">
<rect width="113" height="113" fill="white"/>
</clipPath>
</defs>
</svg>
