<svg width="33" height="33" viewBox="0 0 33 33" fill="none" xmlns="http://www.w3.org/2000/svg">
<path d="M25.0934 24.2349C25.007 24.235 24.9225 24.2099 24.85 24.1627C24.7776 24.1156 24.7204 24.0484 24.6855 23.9694C24.6505 23.8903 24.6393 23.8028 24.6531 23.7175C24.6669 23.6322 24.7053 23.5528 24.7634 23.4889C25.0212 23.2079 25.2585 22.9088 25.4734 22.5939C25.5054 22.5435 25.5471 22.5001 25.5962 22.4662C25.6452 22.4323 25.7006 22.4086 25.759 22.3964C25.8174 22.3843 25.8776 22.384 25.9361 22.3955C25.9946 22.4071 26.0502 22.4302 26.0996 22.4636C26.149 22.497 26.1912 22.54 26.2237 22.59C26.2562 22.64 26.2783 22.696 26.2888 22.7547C26.2993 22.8135 26.2978 22.8737 26.2846 22.9318C26.2714 22.99 26.2467 23.0449 26.2119 23.0933C25.9731 23.4439 25.7095 23.7768 25.423 24.0896C25.3812 24.1354 25.3303 24.172 25.2736 24.197C25.2168 24.222 25.1555 24.2349 25.0934 24.2349Z" fill="black"/>
<path d="M22.5938 26.276C22.518 26.2766 22.4432 26.2578 22.3767 26.2214C22.3101 26.1851 22.2539 26.1323 22.2134 26.0682C22.1821 26.0191 22.1608 25.9642 22.1508 25.9067C22.1408 25.8493 22.1423 25.7904 22.1552 25.7336C22.1681 25.6767 22.1922 25.623 22.226 25.5755C22.2597 25.528 22.3026 25.4876 22.3521 25.4568C22.4828 25.3757 22.6036 25.3012 22.7191 25.2223C22.82 25.1603 22.9414 25.141 23.0565 25.1686C23.1716 25.1961 23.271 25.2683 23.333 25.3692C23.3949 25.4701 23.4142 25.5914 23.3866 25.7065C23.3591 25.8217 23.2869 25.9211 23.186 25.983C23.0705 26.0602 22.9523 26.1342 22.8333 26.2082C22.7613 26.2527 22.6784 26.2762 22.5938 26.276Z" fill="black"/>
<path d="M27.1185 20.3864C27.0871 20.3865 27.0559 20.3832 27.0253 20.3766C26.968 20.3645 26.9136 20.3412 26.8653 20.308C26.817 20.2749 26.7757 20.2325 26.7438 20.1834C26.7118 20.1343 26.6899 20.0794 26.6792 20.0218C26.6685 19.9642 26.6693 19.905 26.6814 19.8477C26.7827 19.368 26.8333 18.8789 26.8326 18.3886C26.8326 15.564 25.1643 12.9654 22.2545 11.2592C22.1525 11.1994 22.0784 11.1015 22.0485 10.987C22.0186 10.8725 22.0355 10.7508 22.0953 10.6487C22.1552 10.5467 22.2531 10.4726 22.3676 10.4427C22.4821 10.4129 22.6038 10.4297 22.7058 10.4895C25.8484 12.3326 27.7245 15.2857 27.7245 18.3886C27.7251 18.9412 27.668 19.4924 27.5542 20.0332C27.5329 20.1331 27.4781 20.2226 27.3988 20.2869C27.3195 20.3512 27.2205 20.3863 27.1185 20.3864Z" fill="black"/>
<path d="M22.5872 30.5808H19.3051C19.1868 30.5808 19.0734 30.5338 18.9897 30.4501C18.9061 30.3665 18.8591 30.2531 18.8591 30.1348V27.8065C16.5294 28.3461 14.1072 28.3461 11.7775 27.8065V30.1348C11.7775 30.2531 11.7305 30.3665 11.6469 30.4501C11.5633 30.5338 11.4498 30.5808 11.3316 30.5808H8.0494C7.93113 30.5808 7.8177 30.5338 7.73407 30.4501C7.65044 30.3665 7.60345 30.2531 7.60345 30.1348V26.0767C5.83824 25.0183 4.43554 23.4493 3.58058 21.5771H2.2744C1.90776 21.5771 1.55613 21.4315 1.29687 21.1722C1.03762 20.9129 0.891968 20.5613 0.891968 20.1947V16.5825C0.891848 16.2154 1.03732 15.8633 1.29647 15.6033C1.55563 15.3433 1.90731 15.1967 2.2744 15.1956H3.58102C4.14233 13.9343 4.96885 12.8088 6.00429 11.8956L5.26224 7.32913C5.24925 7.24922 5.25826 7.16727 5.2883 7.09209C5.31835 7.01691 5.36829 6.95132 5.43278 6.90237C5.49727 6.85342 5.57387 6.82295 5.65436 6.81423C5.73486 6.8055 5.81621 6.81886 5.88968 6.85286L10.9391 9.18962C11.4547 9.03661 11.9779 8.91083 12.5066 8.81279C12.623 8.79121 12.7431 8.81672 12.8406 8.8837C12.9381 8.95069 13.005 9.05367 13.0266 9.17C13.0482 9.28632 13.0227 9.40645 12.9557 9.50396C12.8887 9.60148 12.7857 9.66838 12.6694 9.68997C12.1187 9.79164 11.5744 9.92565 11.0395 10.0913C10.9339 10.1244 10.8198 10.1171 10.7193 10.0708L6.27677 8.015L6.92294 11.9982C6.93512 12.0736 6.92769 12.151 6.90137 12.2227C6.87505 12.2945 6.83073 12.3583 6.77266 12.408C5.6811 13.32 4.83003 14.4859 4.29409 15.8034C4.26148 15.8871 4.20436 15.959 4.1302 16.0097C4.05604 16.0604 3.9683 16.0875 3.87847 16.0875H2.2744C2.14375 16.0882 2.01871 16.1407 1.92674 16.2335C1.83477 16.3263 1.78339 16.4519 1.78386 16.5825V20.1947C1.78386 20.3248 1.83554 20.4495 1.92754 20.5415C2.01953 20.6335 2.1443 20.6852 2.2744 20.6852H3.87981C3.96963 20.6852 4.05737 20.7123 4.13153 20.763C4.20569 20.8137 4.26282 20.8856 4.29543 20.9693C5.09763 22.8762 6.51362 24.4606 8.31875 25.4711C8.41316 25.5272 8.48356 25.6161 8.51647 25.7208C8.54939 25.8256 8.5425 25.9388 8.49713 26.0388V29.6889H10.8874V27.2317C10.8874 27.1629 10.9033 27.095 10.9339 27.0334C10.9645 26.9718 11.009 26.9181 11.0638 26.8765C11.1186 26.8349 11.1823 26.8066 11.2498 26.7937C11.3174 26.7808 11.387 26.7837 11.4533 26.8023C13.9852 27.4906 16.655 27.4906 19.1869 26.8023C19.2532 26.7837 19.3228 26.7808 19.3904 26.7937C19.458 26.8066 19.5216 26.8349 19.5764 26.8765C19.6312 26.9181 19.6757 26.9718 19.7063 27.0334C19.7369 27.095 19.7528 27.1629 19.7528 27.2317V29.6889H22.1431V25.9327C22.1209 25.8377 22.1314 25.7379 22.1729 25.6496C22.2144 25.5613 22.2845 25.4896 22.3718 25.4461C22.441 25.4114 22.5178 25.3946 22.5951 25.3971C22.6725 25.3997 22.748 25.4216 22.8147 25.4608C22.8804 25.4994 22.9351 25.554 22.9736 25.6197C23.0122 25.6853 23.0333 25.7598 23.035 25.8359V30.1348C23.035 30.1935 23.0234 30.2517 23.0009 30.3059C22.9783 30.3601 22.9453 30.4093 22.9037 30.4508C22.8621 30.4922 22.8128 30.525 22.7584 30.5473C22.7041 30.5696 22.646 30.581 22.5872 30.5808Z" fill="black"/>
<path d="M27.7754 18.8595C27.5895 18.861 27.4038 18.8507 27.2193 18.8287C27.102 18.8128 26.996 18.751 26.9243 18.6569C26.8527 18.5628 26.8214 18.444 26.8373 18.3268C26.8532 18.2096 26.915 18.1035 27.0092 18.0319C27.1033 17.9603 27.222 17.929 27.3392 17.9449C28.3114 18.0499 29.2896 17.8112 30.1041 17.2702C30.4263 17.0046 30.6913 16.6763 30.8829 16.3053C31.0746 15.9343 31.1889 15.5283 31.2189 15.1118C31.2361 14.9966 31.2977 14.8927 31.3904 14.8223C31.4832 14.7519 31.5998 14.7206 31.7153 14.735C31.8309 14.7495 31.9362 14.8086 32.0088 14.8996C32.0813 14.9907 32.1154 15.1065 32.1037 15.2224C32.0614 15.7574 31.9101 16.278 31.6592 16.7524C31.4082 17.2268 31.063 17.6449 30.6446 17.981C29.8074 18.5744 28.8013 18.8825 27.7754 18.8595Z" fill="black"/>
<path d="M7.80398 17.1355C7.49528 17.1355 7.19351 17.0439 6.93684 16.8724C6.68016 16.7009 6.48011 16.4572 6.36197 16.172C6.24384 15.8868 6.21293 15.5729 6.27316 15.2702C6.33338 14.9674 6.48203 14.6893 6.70032 14.471C6.9186 14.2527 7.19671 14.1041 7.49948 14.0438C7.80224 13.9836 8.11607 14.0145 8.40127 14.1327C8.68647 14.2508 8.93024 14.4509 9.10174 14.7075C9.27325 14.9642 9.36479 15.266 9.36479 15.5747C9.36479 15.9886 9.20035 16.3856 8.90764 16.6783C8.61493 16.971 8.21793 17.1355 7.80398 17.1355ZM7.80398 14.9057C7.67168 14.9057 7.54235 14.945 7.43234 15.0185C7.32234 15.092 7.2366 15.1965 7.18598 15.3187C7.13535 15.4409 7.1221 15.5754 7.14791 15.7052C7.17372 15.8349 7.23743 15.9541 7.33098 16.0477C7.42453 16.1412 7.54372 16.2049 7.67348 16.2307C7.80323 16.2565 7.93773 16.2433 8.05996 16.1927C8.18219 16.142 8.28666 16.0563 8.36016 15.9463C8.43366 15.8363 8.4729 15.707 8.4729 15.5747C8.4729 15.3973 8.40242 15.2271 8.27697 15.1017C8.15153 14.9762 7.98138 14.9057 7.80398 14.9057Z" fill="black"/>
<path d="M20.3846 13.3717C20.2854 13.3718 20.189 13.3388 20.1106 13.278C20.0322 13.2171 19.9764 13.1318 19.9519 13.0357C19.9275 12.9395 19.9358 12.8379 19.9755 12.747C20.0153 12.6561 20.0842 12.5811 20.1715 12.5337C21.1316 12.0145 21.891 11.1898 22.3297 10.1903C22.7683 9.19079 22.8611 8.07353 22.5933 7.01537C22.3255 5.95721 21.7124 5.0186 20.851 4.34811C19.9897 3.67763 18.9294 3.31357 17.8378 3.31357C16.7463 3.31357 15.686 3.67763 14.8246 4.34811C13.9633 5.0186 13.3502 5.95721 13.0824 7.01537C12.8146 8.07353 12.9073 9.19079 13.346 10.1903C13.7846 11.1898 14.5441 12.0145 15.5042 12.5337C15.6082 12.5902 15.6854 12.6856 15.7191 12.799C15.7527 12.9124 15.7399 13.0345 15.6835 13.1384C15.627 13.2424 15.5316 13.3197 15.4182 13.3533C15.3048 13.3869 15.1827 13.3741 15.0788 13.3177C13.9443 12.7038 13.047 11.7291 12.5289 10.5479C12.0107 9.3667 11.9013 8.0464 12.2179 6.79599C12.5345 5.54558 13.2591 4.43647 14.277 3.64421C15.2949 2.85194 16.548 2.42177 17.8378 2.42177C19.1277 2.42177 20.3807 2.85194 21.3986 3.64421C22.4165 4.43647 23.1411 5.54558 23.4578 6.79599C23.7744 8.0464 23.665 9.3667 23.1468 10.5479C22.6286 11.7291 21.7313 12.7038 20.5969 13.3177C20.5317 13.3531 20.4588 13.3716 20.3846 13.3717Z" fill="black"/>
<path d="M17.8377 8.66251C17.4849 8.66251 17.1401 8.55789 16.8467 8.36189C16.5534 8.16588 16.3247 7.88729 16.1897 7.56135C16.0547 7.23541 16.0194 6.87675 16.0882 6.53073C16.1571 6.18471 16.3269 5.86687 16.5764 5.6174C16.8259 5.36793 17.1437 5.19804 17.4897 5.12922C17.8358 5.06039 18.1944 5.09571 18.5204 5.23072C18.8463 5.36573 19.1249 5.59437 19.3209 5.88771C19.5169 6.18105 19.6215 6.52593 19.6215 6.87872C19.6215 6.997 19.5745 7.11042 19.4909 7.19406C19.4073 7.27769 19.2938 7.32467 19.1756 7.32467C19.0573 7.32467 18.9439 7.27769 18.8602 7.19406C18.7766 7.11042 18.7296 6.997 18.7296 6.87872C18.7296 6.70233 18.6773 6.52989 18.5793 6.38322C18.4813 6.23655 18.342 6.12223 18.1791 6.05472C18.0161 5.98722 17.8367 5.96956 17.6637 6.00397C17.4907 6.03838 17.3318 6.12333 17.2071 6.24806C17.0823 6.37279 16.9974 6.53172 16.963 6.70473C16.9286 6.87774 16.9462 7.05706 17.0137 7.22004C17.0812 7.38301 17.1956 7.5223 17.3422 7.62031C17.4889 7.71831 17.6613 7.77062 17.8377 7.77062C17.956 7.77062 18.0694 7.8176 18.1531 7.90123C18.2367 7.98486 18.2837 8.09829 18.2837 8.21656C18.2837 8.33483 18.2367 8.44826 18.1531 8.53189C18.0694 8.61552 17.956 8.66251 17.8377 8.66251Z" fill="black"/>
<path d="M17.8379 11.3382C17.3648 11.3382 16.9111 11.1502 16.5765 10.8157C16.242 10.4812 16.0541 10.0275 16.0541 9.55438C16.0541 9.43611 16.1011 9.32268 16.1847 9.23905C16.2683 9.15542 16.3818 9.10844 16.5 9.10844C16.6183 9.10844 16.7317 9.15542 16.8154 9.23905C16.899 9.32268 16.946 9.43611 16.946 9.55438C16.946 9.73078 16.9983 9.90322 17.0963 10.0499C17.1943 10.1966 17.3336 10.3109 17.4966 10.3784C17.6595 10.4459 17.8389 10.4636 18.0119 10.4291C18.1849 10.3947 18.3438 10.3098 18.4685 10.185C18.5933 10.0603 18.6782 9.90139 18.7126 9.72838C18.747 9.55537 18.7294 9.37604 18.6619 9.21307C18.5944 9.0501 18.48 8.91081 18.3334 8.8128C18.1867 8.7148 18.0143 8.66249 17.8379 8.66249C17.7196 8.66249 17.6062 8.61551 17.5225 8.53188C17.4389 8.44825 17.3919 8.33482 17.3919 8.21655C17.3919 8.09827 17.4389 7.98485 17.5225 7.90121C17.6062 7.81758 17.7196 7.7706 17.8379 7.7706C18.311 7.7706 18.7647 7.95853 19.0992 8.29306C19.4337 8.62758 19.6216 9.0813 19.6216 9.55438C19.6216 10.0275 19.4337 10.4812 19.0992 10.8157C18.7647 11.1502 18.311 11.3382 17.8379 11.3382Z" fill="black"/>
<path d="M17.8379 11.7841C17.7196 11.7841 17.6062 11.7371 17.5226 11.6535C17.439 11.5699 17.392 11.4565 17.392 11.3382V10.8922C17.392 10.774 17.439 10.6605 17.5226 10.5769C17.6062 10.4933 17.7196 10.4463 17.8379 10.4463C17.9562 10.4463 18.0696 10.4933 18.1532 10.5769C18.2369 10.6605 18.2839 10.774 18.2839 10.8922V11.3382C18.2839 11.4565 18.2369 11.5699 18.1532 11.6535C18.0696 11.7371 17.9562 11.7841 17.8379 11.7841Z" fill="black"/>
<path d="M17.8379 5.98684C17.7196 5.98684 17.6062 5.93986 17.5226 5.85623C17.439 5.77259 17.392 5.65917 17.392 5.54089V5.09495C17.392 4.97668 17.439 4.86325 17.5226 4.77962C17.6062 4.69599 17.7196 4.649 17.8379 4.649C17.9562 4.649 18.0696 4.69599 18.1532 4.77962C18.2369 4.86325 18.2839 4.97668 18.2839 5.09495V5.54089C18.2839 5.65917 18.2369 5.77259 18.1532 5.85623C18.0696 5.93986 17.9562 5.98684 17.8379 5.98684Z" fill="black"/>
<path d="M22.2972 13.3726H13.3783C13.26 13.3726 13.1466 13.3256 13.063 13.242C12.9794 13.1583 12.9324 13.0449 12.9324 12.9266C12.9324 12.8084 12.9794 12.6949 13.063 12.6113C13.1466 12.5277 13.26 12.4807 13.3783 12.4807H22.2972C22.4155 12.4807 22.5289 12.5277 22.6126 12.6113C22.6962 12.6949 22.7432 12.8084 22.7432 12.9266C22.7432 13.0449 22.6962 13.1583 22.6126 13.242C22.5289 13.3256 22.4155 13.3726 22.2972 13.3726Z" fill="black"/>
</svg>
