<svg width="103" height="103" viewBox="0 0 103 103" fill="none" xmlns="http://www.w3.org/2000/svg">
<path d="M101.391 65.9844H69.4928L71.9262 51.3873C74.0827 51.0848 75.9561 49.9389 77.213 48.2764C77.2259 48.2764 77.2371 48.2812 77.25 48.2812C87.0109 48.2812 94.9531 40.339 94.9531 30.5781V24.0988C96.8956 22.6278 98.1719 20.32 98.1719 17.7031V17.4424L96.4804 12.3664L93.4274 13.3852L94.9483 17.9461C94.8195 20.4954 92.7064 22.5312 90.125 22.5312C87.5436 22.5312 85.4305 20.4954 85.3033 17.9461L86.8242 13.3852L83.7712 12.3664L82.0781 17.4424V17.7031C82.0781 20.3216 83.3544 22.6294 85.2969 24.0988V30.7568C85.2969 35.0956 81.7675 38.625 77.4303 38.625C77.361 38.625 77.2902 38.6379 77.221 38.6395C75.7517 36.6889 73.4374 35.4062 70.8125 35.4062C69.966 35.4062 69.1323 35.5607 68.3196 35.8376L67.8239 35.1761C69.6312 33.6987 70.8125 31.481 70.8125 28.9688V27.3594H72.4219C75.0838 27.3594 77.25 25.1932 77.25 22.5312V16.0938C77.25 13.4318 75.0838 11.2656 72.4219 11.2656H70.8125V9.65625C70.8125 5.2192 67.2027 1.60938 62.7656 1.60938H40.2344C35.7973 1.60938 32.1875 5.2192 32.1875 9.65625V11.2656H30.5781C27.9162 11.2656 25.75 13.4318 25.75 16.0938V22.5312C25.75 25.1932 27.9162 27.3594 30.5781 27.3594H32.1875V28.9688C32.1875 31.481 33.3688 33.6987 35.1777 35.1761L34.682 35.8376C33.8677 35.5607 33.034 35.4062 32.1875 35.4062C27.7505 35.4062 24.1406 39.0161 24.1406 43.4531C24.1406 43.5111 24.1567 43.5658 24.1583 43.6221C21.8634 46.7604 19.3125 51.3503 19.3125 56.3281C19.3125 59.1832 20.4616 62.6256 22.0404 65.9844H1.60938V69.2031H23.6836C24.3016 70.32 24.9437 71.4047 25.5842 72.4219H19.3125V101.391H83.6875V72.4219H41.0181C39.8143 72.1435 38.5687 72.1435 37.3649 72.4235C37.0977 72.1274 36.8112 71.8473 36.4749 71.6236C35.9406 71.268 35.2324 70.378 34.468 69.2031H101.391V65.9844ZM72.4219 14.4844C73.3086 14.4844 74.0312 15.207 74.0312 16.0938V22.5312C74.0312 23.418 73.3086 24.1406 72.4219 24.1406H70.8125V14.4844H72.4219ZM30.5781 24.1406C29.6914 24.1406 28.9688 23.418 28.9688 22.5312V16.0938C28.9688 15.207 29.6914 14.4844 30.5781 14.4844H32.1875V24.1406H30.5781ZM88.5156 30.7584V25.5875C89.0355 25.6937 89.5746 25.75 90.125 25.75C90.6754 25.75 91.2145 25.6937 91.7344 25.5875V30.5781C91.7344 38.073 86.0098 44.2562 78.7049 44.9885C78.8014 44.4912 78.8594 43.9794 78.8594 43.4531C78.8594 42.8754 78.7918 42.3137 78.6759 41.7697C84.2041 41.1469 88.5156 36.4491 88.5156 30.7584ZM75.6406 43.4531C75.6406 45.5807 74.2501 47.3687 72.38 48.0125C72.3993 47.6745 72.4219 47.3382 72.4219 47.0018C72.4219 44.1033 71.6542 41.229 70.2524 38.699C70.4391 38.6749 70.6242 38.625 70.8125 38.625C73.4744 38.625 75.6406 40.7912 75.6406 43.4531ZM56.3281 4.82812L53.9141 8.04688H49.0859L46.6719 4.82812H56.3281ZM35.4062 9.65625C35.4062 6.99434 37.5725 4.82812 40.2344 4.82812H42.6484L47.4766 11.2656H55.5234L60.3516 4.82812H62.7656C65.4275 4.82812 67.5938 6.99434 67.5938 9.65625V28.9688C67.5938 31.6307 65.4275 33.7969 62.7656 33.7969H40.2344C37.5725 33.7969 35.4062 31.6307 35.4062 28.9688V9.65625ZM62.7656 37.0156H65.1797L66.4302 38.6845C66.4495 38.7103 66.4656 38.7377 66.4833 38.7634L66.4913 38.7747C68.2391 41.1437 69.2031 44.0583 69.2031 47.0018C69.2031 47.7614 69.1387 48.5275 69.0148 49.2807L66.2306 65.9844H36.7694L33.9852 49.2807C33.8613 48.5275 33.7969 47.7614 33.7969 47.0018C33.7969 44.4477 34.5243 41.9162 35.8569 39.7435L36.5827 38.6668L37.8203 37.0156H40.2344H62.7656ZM32.1875 38.625C32.3758 38.625 32.5609 38.6749 32.7492 38.699C31.3458 41.229 30.5781 44.1017 30.5781 47.0018C30.5781 47.3333 30.6007 47.6665 30.62 47.998C28.729 47.343 27.3594 45.563 27.3594 43.4531C27.3594 40.7912 29.5256 38.625 32.1875 38.625ZM42.4328 76.6513L44.5829 80.9532L46.6719 79.9087V82.0781H49.8906V78.8594H47.1354L45.526 75.6406H80.4688V98.1719H22.5312V75.6406H27.7472C28.7483 77.0408 29.6334 78.148 30.2852 78.8594H27.3594V82.0781H30.5781V79.1716C30.7938 79.3905 30.9837 79.5675 31.1157 79.656C31.143 79.6737 31.1736 79.6866 31.201 79.7043C31.0545 81.9381 31.7996 84.2202 33.5024 85.9245L33.6874 86.1096L38.4737 88.5028L39.9141 85.6236L35.6123 83.4735C33.8999 81.5808 33.9546 78.6453 35.7796 76.8203C37.6047 74.9937 40.5402 74.9389 42.4328 76.6513ZM33.504 74.543C32.9922 75.0548 32.5947 75.6326 32.2487 76.2329C29.7091 73.1686 22.5312 62.6723 22.5312 56.3281C22.5312 53.177 23.8365 50.124 25.3444 47.6327C25.9415 48.608 26.7205 49.4577 27.6635 50.1015C26.4147 52.3481 25.75 54.4435 25.75 56.3281C25.75 60.2936 31.0706 71.1617 34.2443 73.9395C33.9932 74.1359 33.7341 74.3129 33.504 74.543ZM28.9688 56.3281C28.9688 54.9312 29.5707 53.2172 30.657 51.3455C30.7922 51.3713 30.937 51.368 31.0738 51.3873L33.5072 65.9844H32.6027C30.702 62.3729 28.9688 58.0936 28.9688 56.3281Z" fill="#9B51E0"/>
<path d="M33.7969 91.7344H37.0156V94.9531H33.7969V91.7344Z" fill="#9B51E0"/>
<path d="M27.3594 91.7344H30.5781V94.9531H27.3594V91.7344Z" fill="#9B51E0"/>
<path d="M72.4219 91.7344H75.6406V94.9531H72.4219V91.7344Z" fill="#9B51E0"/>
<path d="M65.9844 91.7344H69.2031V94.9531H65.9844V91.7344Z" fill="#9B51E0"/>
<path d="M53.1094 91.7344H56.3281V94.9531H53.1094V91.7344Z" fill="#9B51E0"/>
<path d="M46.6719 91.7344H49.8906V94.9531H46.6719V91.7344Z" fill="#9B51E0"/>
<path d="M59.5469 91.7344H62.7656V94.9531H59.5469V91.7344Z" fill="#9B51E0"/>
<path d="M40.2344 91.7344H43.4531V94.9531H40.2344V91.7344Z" fill="#9B51E0"/>
<path d="M27.3594 85.2969H30.5781V88.5156H27.3594V85.2969Z" fill="#9B51E0"/>
<path d="M53.1094 85.2969H56.3281V88.5156H53.1094V85.2969Z" fill="#9B51E0"/>
<path d="M40.2344 85.2969H43.4531V88.5156H40.2344V85.2969Z" fill="#9B51E0"/>
<path d="M46.6719 85.2969H49.8906V88.5156H46.6719V85.2969Z" fill="#9B51E0"/>
<path d="M72.4219 85.2969H75.6406V88.5156H72.4219V85.2969Z" fill="#9B51E0"/>
<path d="M65.9844 85.2969H69.2031V88.5156H65.9844V85.2969Z" fill="#9B51E0"/>
<path d="M59.5469 85.2969H62.7656V88.5156H59.5469V85.2969Z" fill="#9B51E0"/>
<path d="M53.1094 78.8594H56.3281V82.0781H53.1094V78.8594Z" fill="#9B51E0"/>
<path d="M59.5469 78.8594H62.7656V82.0781H59.5469V78.8594Z" fill="#9B51E0"/>
<path d="M72.4219 78.8594H75.6406V82.0781H72.4219V78.8594Z" fill="#9B51E0"/>
<path d="M65.9844 78.8594H69.2031V82.0781H65.9844V78.8594Z" fill="#9B51E0"/>
<path d="M59.5469 20.9219C62.2088 20.9219 64.375 18.7557 64.375 16.0938C64.375 13.4318 62.2088 11.2656 59.5469 11.2656C56.885 11.2656 54.7188 13.4318 54.7188 16.0938C54.7188 18.7557 56.885 20.9219 59.5469 20.9219ZM59.5469 14.4844C60.4336 14.4844 61.1562 15.207 61.1562 16.0938C61.1562 16.9805 60.4336 17.7031 59.5469 17.7031C58.6601 17.7031 57.9375 16.9805 57.9375 16.0938C57.9375 15.207 58.6601 14.4844 59.5469 14.4844Z" fill="#9B51E0"/>
<path d="M43.4531 20.9219C46.115 20.9219 48.2812 18.7557 48.2812 16.0938C48.2812 13.4318 46.115 11.2656 43.4531 11.2656C40.7912 11.2656 38.625 13.4318 38.625 16.0938C38.625 18.7557 40.7912 20.9219 43.4531 20.9219ZM43.4531 14.4844C44.3399 14.4844 45.0625 15.207 45.0625 16.0938C45.0625 16.9805 44.3399 17.7031 43.4531 17.7031C42.5664 17.7031 41.8438 16.9805 41.8438 16.0938C41.8438 15.207 42.5664 14.4844 43.4531 14.4844Z" fill="#9B51E0"/>
<path d="M57.894 27.3594L45.0625 27.3159V24.1406H41.8438V27.3159C41.8438 29.1136 43.3083 30.5781 45.106 30.5781H57.8924C59.6917 30.5781 61.1562 29.1136 61.1562 27.3159V24.1406H57.9375L57.894 27.3594Z" fill="#9B51E0"/>
<path d="M37.0156 51.5C37.0156 54.1619 39.1818 56.3281 41.8438 56.3281H61.1562C63.8182 56.3281 65.9844 54.1619 65.9844 51.5V45.0625C65.9844 42.4006 63.8182 40.2344 61.1562 40.2344H41.8438C39.1818 40.2344 37.0156 42.4006 37.0156 45.0625V51.5ZM40.2344 45.0625C40.2344 44.1757 40.957 43.4531 41.8438 43.4531H61.1562C62.043 43.4531 62.7656 44.1757 62.7656 45.0625V51.5C62.7656 52.3868 62.043 53.1094 61.1562 53.1094H41.8438C40.957 53.1094 40.2344 52.3868 40.2344 51.5V45.0625Z" fill="#9B51E0"/>
<path d="M46.6719 59.5469H49.8906V62.7656H46.6719V59.5469Z" fill="#9B51E0"/>
<path d="M40.2344 59.5469H43.4531V62.7656H40.2344V59.5469Z" fill="#9B51E0"/>
<path d="M59.5469 59.5469H62.7656V62.7656H59.5469V59.5469Z" fill="#9B51E0"/>
<path d="M53.1094 59.5469H56.3281V62.7656H53.1094V59.5469Z" fill="#9B51E0"/>
</svg>
